<svg xmlns="http://www.w3.org/2000/svg" version="1.1" xmlns:xlink="http://www.w3.org/1999/xlink" width="512" height="512" x="0" y="0" viewBox="0 0 60 60" style="enable-background:new 0 0 512 512" xml:space="preserve" class=""><g><g fill="#3e3e59"><path d="M9.644 59.434a.5.5 0 0 1-.321-.884l3.839-3.211-4.762 2.75a.5.5 0 0 1-.6-.789l2.331-2.228-.66.381a.5.5 0 1 1-.5-.865l4.265-2.463a.5.5 0 0 1 .6.794L11.5 55.142l6.155-3.553a.5.5 0 0 1 .571.816l-3.841 3.212 5.7-3.292a.5.5 0 0 1 .643.741l-.926 1.184 1.861-1.074a.5.5 0 0 1 .631.757l-.189.221.663-.383a.5.5 0 0 1 .744.353l.092.572.425-.245a.5.5 0 1 1 .5.865l-1.053.608a.5.5 0 0 1-.743-.353L22.647 55 20.1 56.468a.5.5 0 0 1-.63-.757l.189-.223-1.587.916a.5.5 0 0 1-.643-.741l.926-1.184-8.461 4.887a.5.5 0 0 1-.25.068zM49.7 27.47a.5.5 0 0 1-.25-.933l2.024-1.168a.5.5 0 0 1 .5.865L49.947 27.4a.5.5 0 0 1-.247.07z" fill="#3e3e59" opacity="1" data-original="#3e3e59"></path><path d="M28.837 51.5a.5.5 0 0 1-.278-.915l4.14-2.771-4.536 2.618a.5.5 0 0 1-.531-.846l9.09-6.191-8.787 5.073a.5.5 0 0 1-.534-.845l10.636-7.3L27.684 46.3a.5.5 0 0 1-.53-.848l9.294-6.252-8.987 5.189a.5.5 0 0 1-.529-.847l9.09-6.132-8.369 4.83a.5.5 0 0 1-.528-.847l12.086-8.107-11.262 6.5a.5.5 0 0 1-.515-.856l1.075-.674-.387.222a.5.5 0 0 1-.518-.854l3.5-2.221L28.336 37a.5.5 0 0 1-.527-.849l9.8-6.538-8.683 5.013a.5.5 0 0 1-.591-.8l2.965-2.77a.5.5 0 0 1-.464-.885l3.744-2.161a.5.5 0 0 1 .591.8l-2.961 2.766 18.264-10.545a.5.5 0 0 1 .526.849l-9.8 6.539 9.806-5.66a.5.5 0 0 1 .518.854l-3.48 2.211 3.687-2.124a.5.5 0 0 1 .516.857l-1.069.67.421-.243a.5.5 0 0 1 .528.848l-12.091 8.106 7.889-4.555a.5.5 0 0 1 .529.846l-9.087 6.13 9.178-5.3a.5.5 0 0 1 .529.847l-9.293 6.254 8.919-5.145a.5.5 0 0 1 .533.844l-10.64 7.3 9.28-5.359a.5.5 0 0 1 .531.846l-9.09 6.19 5.951-3.436a.5.5 0 0 1 .528.848l-4.141 2.772 3.337-1.926a.5.5 0 0 1 .536.843l-4.082 2.853 3.783-2.183a.5.5 0 0 1 .56.825l-4.7 3.733 4.483-2.588a.5.5 0 0 1 .563.823l-2.3 1.837L46.3 45.81a.5.5 0 0 1 .56.824l-.65.516 1.086-.627a.5.5 0 0 1 .651.731L46.4 49.338l1.325-.764a.5.5 0 0 1 .735.551l-.268 1.1a.5.5 0 0 1 .051.891l-.5.288a.5.5 0 0 1-.735-.55l.2-.829-2.4 1.383a.5.5 0 0 1-.651-.73l1.544-2.084-4.885 2.819a.5.5 0 0 1-.56-.824l.652-.518-2.33 1.345a.5.5 0 0 1-.563-.823l2.3-1.837-4.616 2.664a.5.5 0 0 1-.561-.824l4.7-3.734-7.9 4.563a.5.5 0 0 1-.536-.843l4.08-2.852-6.408 3.7a.494.494 0 0 1-.237.07z" fill="#3e3e59" opacity="1" data-original="#3e3e59"></path><path d="M40.039 27.063a.5.5 0 0 1-.322-.883l4.291-3.615-3.071 1.773a.5.5 0 0 1-.574-.814l2.963-2.518-1.633.942a.5.5 0 0 1-.583-.8l4.46-3.99a.5.5 0 0 1 .2-.661l1.582-.913a.5.5 0 0 1 .583.806l-2.55 2.28 2.219-1.28a.5.5 0 0 1 .574.813l-2.962 2.518 3.184-1.848a.5.5 0 0 1 .573.815L44.684 23.3l5.438-3.14a.5.5 0 1 1 .5.865L40.289 27a.493.493 0 0 1-.25.063z" fill="#3e3e59" opacity="1" data-original="#3e3e59"></path></g><path fill="#f8b63b" d="M34.653 4.128A.5.5 0 0 1 34.4 3.2L38.43.87a.5.5 0 0 1 .5.865L34.9 4.061a.5.5 0 0 1-.247.067z" opacity="1" data-original="#f8b63b" class=""></path><path fill="#f8b63b" d="M33.894 57.447a.5.5 0 0 1-.315-.888l3.321-2.683-5.647 3.26a.5.5 0 0 1-.552-.831l2.438-1.844-3.978 2.3a.5.5 0 0 1-.573-.815l3.919-3.315-5.932 3.424a.5.5 0 0 1-.562-.822l3.517-2.821-5 2.885a.5.5 0 0 1-.568-.818L27.93 51.2l-5.444 3.143a.5.5 0 0 1-.55-.832l2.64-1.989-3.514 2.029a.5.5 0 0 1-.55-.832l2.638-1.982-3.416 1.973a.5.5 0 0 1-.56-.824l3.8-3.015-4.752 2.743a.5.5 0 0 1-.55-.833l2.814-2.111-3.438 1.985a.5.5 0 0 1-.538-.842l.7-.488-1 .576a.5.5 0 0 1-.54-.839l1.364-.973-1.687.974a.5.5 0 0 1-.544-.837l2.239-1.632-2.6 1.5a.5.5 0 0 1-.537-.843l.665-.464-.839.483a.5.5 0 0 1-.566-.82l4.847-3.95-5.512 3.178a.5.5 0 0 1-.564-.822l4.964-4.024-5.5 3.181a.5.5 0 0 1-.541-.84l1.941-1.384-2.019 1.165a.5.5 0 0 1-.554-.829l4.454-3.43-4.7 2.713a.5.5 0 0 1-.558-.827l4.958-3.867-5.15 2.974a.5.5 0 0 1-.541-.84l2.433-1.73-2.344 1.352a.5.5 0 0 1-.535-.844l1.4-.968-1.216.7a.5.5 0 0 1-.555-.829l5.314-4.076-5.248 3.027a.5.5 0 0 1-.531-.845l.708-.484-.395.229a.5.5 0 0 1-.553-.831l5.689-4.318-5.423 3.131a.5.5 0 0 1-.533-.845l1.619-1.108-1.189.691a.5.5 0 0 1-.54-.84l4.214-3-3.718 2.14a.5.5 0 0 1-.532-.844l2.519-1.728-1.948 1.128a.5.5 0 0 1-.541-.84l5.557-3.971-4.848 2.8a.5.5 0 0 1-.53-.846l3.106-2.109-2.323 1.341a.5.5 0 0 1-.674-.167.5.5 0 0 1 .144-.68l4.194-2.845-3.27 1.887a.5.5 0 0 1-.536-.843l8.272-5.742-6.956 4.016A.5.5 0 0 1 8.4 19.1l6.432-4.039L9.7 18.029a.5.5 0 0 1-.517-.855l5.343-3.381L10.692 16a.5.5 0 0 1-.533-.845l10.23-7.014-7.352 4.244a.5.5 0 0 1-.555-.829l5.6-4.295a.505.505 0 0 1-.554-.236.5.5 0 0 1 .183-.682l6.347-3.663a.5.5 0 0 1 .554.829l-5.475 4.2L31.062.826a.5.5 0 0 1 .534.845l-10.23 7.015L35.343.616a.5.5 0 0 1 .517.856L30.5 4.866 37.6.764a.5.5 0 0 1 .515.856L26.269 9.063a.49.49 0 0 1 .183.171.5.5 0 0 1-.137.679l-8.269 5.739 4.8-2.768a.5.5 0 0 1 .53.846l-4.195 2.847 2.4-1.387a.5.5 0 0 1 .53.847L19 18.148l1.756-1.013a.5.5 0 0 1 .67.162.5.5 0 0 1-.129.678l-5.547 3.964L20 19.481a.5.5 0 0 1 .532.845l-2.522 1.732 1.618-.934a.5.5 0 0 1 .54.84l-4.216 3L19.354 23a.5.5 0 0 1 .533.846l-1.618 1.106.973-.561a.5.5 0 0 1 .553.831L14.1 29.541l5.119-2.955a.5.5 0 0 1 .531.846l-.705.481.243-.141a.5.5 0 0 1 .555.83l-5.313 4.075 5.017-2.9a.5.5 0 0 1 .535.844l-1.4.973 1.1-.635a.5.5 0 0 1 .54.84L17.9 33.528l2.212-1.276a.5.5 0 0 1 .558.827l-4.96 3.868 5-2.884a.5.5 0 0 1 .555.83l-4.465 3.43 4.568-2.636a.5.5 0 0 1 .54.839l-1.93 1.374 1.928-1.113a.5.5 0 0 1 .565.821l-4.971 4.03 5.4-3.119a.5.5 0 0 1 .566.82L18.611 43.3l5.421-3.129a.5.5 0 0 1 .536.843l-.659.461.787-.454a.5.5 0 0 1 .544.836L23 43.488l2.56-1.478a.5.5 0 0 1 .67.162.5.5 0 0 1-.13.678l-1.362.97 1.647-.95a.5.5 0 0 1 .538.842l-.7.489.971-.56a.5.5 0 0 1 .55.833l-2.817 2.112 3.417-1.972a.5.5 0 0 1 .56.824l-3.8 3.014 4.73-2.729a.5.5 0 0 1 .55.832l-2.642 1.983 3.427-1.977a.5.5 0 0 1 .551.832l-2.636 1.985 3.524-2.035a.5.5 0 0 1 .569.818l-3.967 3.276 5.494-3.171a.5.5 0 0 1 .562.822l-3.516 2.82 5.089-2.937a.5.5 0 0 1 .573.814L33.5 53.1l6.119-3.533a.5.5 0 0 1 .552.831l-2.44 1.846 4.234-2.444a.5.5 0 0 1 .564.821L39.207 53.3l6.288-3.63a.5.5 0 0 1 .55.833l-2.358 1.766 6.068-3.5a.5.5 0 0 1 .557.826l-3.357 2.627 7.663-4.422a.5.5 0 1 1 .5.865l-13.829 7.981a.5.5 0 0 1-.558-.826l3.358-2.627-7.155 4.131a.5.5 0 0 1-.55-.833l2.357-1.765-4.6 2.654a.494.494 0 0 1-.247.067z" opacity="1" data-original="#f8b63b" class=""></path><path fill="#262626" d="M54.037 47.1c-1.8.631-3.46 1.463-5.3 1.968a3.41 3.41 0 0 0-.461-2.361c-2.02-1.118-2.043-3.471-2.3-5.548 2.184-6.316 5.187-4.356 2.859-12.818.267-2.057 3.586-.339 3.881-3.431.318-1.325-.911-1.783-1.136-2.981-.041-3.169-3.8-2.345-3.014-4.159 1.011-6.468-9.1 3.91-8.652 6.416-1 8.017-12.645-1.178-13.284 18.068C14.335 29.935 20.9 6.688 38.033 3.024c1.6.029 3.708-1.835.871-2.216C10.73-3.611-5.669 34.216 17.237 51.455c-4.357-1.248-15.588 6.9-6.624 8.024 4.421-4.246 8.93-1.938 14.083-3.855 13.059 7.226 37.045-8.103 29.341-8.524zM30.493 31.91c1.93-3.3 5.6-3.361 8.839-4.181 3.671-3.644.524-6.143 7.779-11.307a.561.561 0 0 0 .224.275 15.129 15.129 0 0 1-.4 2.427c1.709.5 3.258 1.525 3.241 3.5.611 1.111 1.7 1.941.867 3.3-.43 1.5-2.817.4-3.455 1.978-.565 1.038-.033 2.09.309 3.078 2.341 4.977-4.683 7.679-3.1 12.368-.309 2.869 2.852 3.408 2.482 6.052a22.6 22.6 0 0 1-19.388-5.88c.603-3.902.34-8.208 2.602-11.61zm-9.363 23.5c-3.97-.186-7.861 0-10.8 3-5.867-2.262 5.832-7.087 8.551-5.78a28.67 28.67 0 0 0 4.247 2.348 12.037 12.037 0 0 1-1.998.43zm3.435.188c.023 0 .042-.01.063 0-.019.002-.034.002-.063.002zm9.651.94C-3.04 54.429.905-2.456 38.363 1.71c1.333.368-4.045 1.264-4.6 1.845C17.922 9.922 13.522 32.58 26.438 43.94c-.01.04.008.053.07.066 7.142 7.118 18.788 8.165 27.669 4.231a27.159 27.159 0 0 1-19.961 8.299z" opacity="1" data-original="#262626" class=""></path></g></svg>