<svg fill="none" height="512" viewBox="0 0 24 24" width="512" xmlns="http://www.w3.org/2000/svg"><path clip-rule="evenodd" d="m6.64424 4.82643c.11151-.29791.48886-.38183.714-.15114.43376.44447 1.45843 1.60992 1.86297 3.09625.03626.13322-.04235.27062-.17558.30688-.13322.03626-.27062-.04235-.30687-.17557-.34968-1.28479-1.21708-2.32851-1.66342-2.80033-.27043.74434-.84536 2.56275-.84536 4.55286 0 .13807-.11193.25-.25.25s-.25-.11193-.25-.25c0-2.17492.65585-4.13863.91426-4.82895zm5.10576 2.42686c-.1681.00444-.3348.01334-.5.02656v.97015c0 .13807-.1119.25-.25.25s-.25-.11193-.25-.25v-.91643c-.4061.0549-.80145.13612-1.18354.24149-.1331.03671-.27076-.04144-.30746-.17454-.03671-.1331.04143-.27076.17454-.30747.80826-.22291 1.67106-.34305 2.56646-.34305s1.7582.12014 2.5665.34305c.1331.03671.2112.17437.1745.30747s-.1744.21125-.3075.17454c-.382-.10537-.7774-.18659-1.1835-.24149v.91643c0 .13807-.1119.25-.25.25s-.25-.11193-.25-.25v-.97015c-.1652-.01322-.3319-.02212-.5-.02656v1.49671c0 .13807-.1119.25-.25.25s-.25-.11193-.25-.25zm-6.16082 2.44191c.10647.08792.1215.24549.03359.352-.86806 1.0511-1.37277 2.3258-1.37277 3.7028h.75c.13807 0 .25.1119.25.25s-.11193.25-.25.25h-.71294c.0228.1497.05644.2974.10177.4428l.56657-.0797c.13673-.0192.26314.0761.28236.2128.01921.1367-.07605.2631-.21278.2824l-.43903.0617c.25852.4951.67772.95 1.29655 1.3368 1.19296.7455 3.13857 1.2432 6.1175 1.2432 2.9789 0 4.9245-.4977 6.1175-1.2432.6188-.3868 1.038-.8417 1.2965-1.3368l-.439-.0617c-.1367-.0193-.232-.1457-.2128-.2824.0193-.1367.1457-.232.2824-.2128l.5666.0797c.0453-.1454.0789-.2931.1017-.4428h-.7129c-.1381 0-.25-.1119-.25-.25s.1119-.25.25-.25h.75c0-1.377-.5047-2.6517-1.3728-3.7028-.0879-.10651-.0728-.26408.0336-.352.1065-.08792.2641-.07288.352.03358.9348 1.13212 1.4872 2.51722 1.4872 4.02122h.75c.1381 0 .25.1119.25.25s-.1119.25-.25.25h-.7821c-.0228.1735-.0579.3448-.106.5131l.9132.1284c.1368.0192.232.1456.2128.2823-.0192.1368-.1456.232-.2823.2128l-1.0209-.1435c-.2908.6356-.7937 1.2136-1.5522 1.6876-1.307.817-3.3614 1.3193-6.3825 1.3193-3.02107 0-5.07546-.5023-6.3825-1.3193-.7585-.474-1.26135-1.052-1.55224-1.6876l-1.02081.1435c-.13673.0192-.26315-.076-.28236-.2128-.01922-.1367.07604-.2631.21277-.2823l.91322-.1284c-.04812-.1683-.0832-.3396-.10595-.5131h-.78213c-.13807 0-.25-.1119-.25-.25s.11193-.25.25-.25h.75c0-1.504.55237-2.8891 1.48723-4.02122.08791-.10646.24549-.1215.35195-.03358zm11.05262-5.01991c.2251-.23069.6024-.14677.714.15114.2584.69032.9142 2.65403.9142 4.82895 0 .13807-.1119.25-.25.25s-.25-.11193-.25-.25c0-1.99011-.5749-3.80852-.8453-4.55286-.4464.47182-1.3138 1.51554-1.6635 2.80033-.0362.13322-.1736.21183-.3068.17557-.1333-.03626-.2119-.17366-.1756-.30688.4045-1.48633 1.4292-2.65178 1.863-3.09625zm-3.6418 8.15801c0-.1841-.4477-.3333-1-.3333s-1 .1492-1 .3333c0 .1554.3187.5231.75.6343v.7824c0 .2761-.2239.5-.5.5s-.5-.2239-.5-.5v-.25c0-.1381-.1119-.25-.25-.25s-.25.1119-.25.25v.25c0 .5523.4477 1 1 1 .2987 0 .5668-.1309.75-.3385.1832.2076.4513.3385.75.3385.5523 0 1-.4477 1-1v-.25c0-.1381-.1119-.25-.25-.25s-.25.1119-.25.25v.25c0 .2761-.2239.5-.5.5s-.5-.2239-.5-.5v-.7824c.4313-.1112.75-.4789.75-.6343zm2.75-.8333c-.2761 0-.5.2239-.5.5 0 .1381-.1119.25-.25.25s-.25-.1119-.25-.25c0-.5523.4477-1 1-1s1 .4477 1 1c0 .1381-.1119.25-.25.25s-.25-.1119-.25-.25c0-.2761-.2239-.5-.5-.5zm-8 .5c0-.2761.22386-.5.5-.5s.5.2239.5.5c0 .1381.11193.25.25.25s.25-.1119.25-.25c0-.5523-.44772-1-1-1s-1 .4477-1 1c0 .1381.11193.25.25.25s.25-.1119.25-.25z" fill="rgb(0,0,0)" fill-rule="evenodd"/></svg>