<svg xmlns="http://www.w3.org/2000/svg" version="1.1" xmlns:xlink="http://www.w3.org/1999/xlink" width="512" height="512" x="0" y="0" viewBox="0 0 24 24" style="enable-background:new 0 0 512 512" xml:space="preserve" class=""><g><path fill="#003a59" fill-rule="evenodd" d="M6.644 4.826a.43.43 0 0 1 .714-.15c.434.444 1.459 1.61 1.863 3.096a.25.25 0 0 1-.482.13c-.35-1.284-1.217-2.328-1.664-2.8-.27.745-.845 2.563-.845 4.553a.25.25 0 0 1-.5 0c0-2.175.656-4.138.914-4.829zm5.106 2.427a9.369 9.369 0 0 0-.5.027v.97a.25.25 0 1 1-.5 0v-.916a8.975 8.975 0 0 0-1.184.241.25.25 0 1 1-.132-.482c.808-.223 1.67-.343 2.566-.343s1.758.12 2.567.343a.25.25 0 1 1-.133.482 8.971 8.971 0 0 0-1.184-.241v.916a.25.25 0 1 1-.5 0v-.97a9.369 9.369 0 0 0-.5-.027V8.75a.25.25 0 1 1-.5 0zM5.59 9.695a.25.25 0 0 1 .033.352c-.868 1.051-1.373 2.326-1.373 3.703H5a.25.25 0 1 1 0 .5h-.713c.023.15.057.297.102.443l.566-.08a.25.25 0 0 1 .07.495l-.44.062c.26.495.679.95 1.298 1.337C7.075 17.252 9.02 17.75 12 17.75s4.925-.498 6.117-1.243c.62-.387 1.038-.842 1.297-1.337l-.439-.062a.25.25 0 0 1 .07-.495l.566.08a3.01 3.01 0 0 0 .102-.443H19a.25.25 0 1 1 0-.5h.75c0-1.377-.505-2.652-1.373-3.703a.25.25 0 0 1 .386-.318c.935 1.132 1.487 2.517 1.487 4.021H21a.25.25 0 1 1 0 .5h-.782a3.547 3.547 0 0 1-.106.513l.913.128a.25.25 0 1 1-.07.496l-1.02-.144c-.291.636-.794 1.214-1.552 1.688-1.307.817-3.362 1.319-6.383 1.319s-5.075-.502-6.383-1.32c-.758-.473-1.26-1.051-1.552-1.687l-1.02.144a.25.25 0 1 1-.07-.496l.913-.128a3.538 3.538 0 0 1-.106-.513H3a.25.25 0 1 1 0-.5h.75c0-1.504.552-2.89 1.487-4.021a.25.25 0 0 1 .352-.034zm11.052-5.02a.43.43 0 0 1 .714.151c.258.69.914 2.654.914 4.83a.25.25 0 1 1-.5 0c0-1.99-.575-3.81-.845-4.553-.447.471-1.314 1.515-1.664 2.8a.25.25 0 1 1-.482-.131c.404-1.487 1.429-2.652 1.863-3.097zM13 12.833c0-.184-.448-.333-1-.333s-1 .15-1 .333c0 .156.319.523.75.635v.782a.5.5 0 0 1-1 0V14a.25.25 0 1 0-.5 0v.25a1 1 0 0 0 1.75.662 1 1 0 0 0 1.75-.662V14a.25.25 0 1 0-.5 0v.25a.5.5 0 0 1-1 0v-.782c.431-.112.75-.48.75-.635zM15.75 12a.5.5 0 0 0-.5.5.25.25 0 1 1-.5 0 1 1 0 1 1 2 0 .25.25 0 1 1-.5 0 .5.5 0 0 0-.5-.5zm-8 .5a.5.5 0 0 1 1 0 .25.25 0 1 0 .5 0 1 1 0 1 0-2 0 .25.25 0 1 0 .5 0z" clip-rule="evenodd" opacity="1" data-original="#000000"></path></g></svg>